<svg width="24" height="25" viewBox="0 0 24 25" fill="none" xmlns="http://www.w3.org/2000/svg">
<path d="M2.32014 11.5919C2.54161 9.73474 3.30121 7.98288 4.50545 6.55187C4.63869 6.39119 4.80401 6.2601 4.99082 6.16696C5.17762 6.07383 5.38181 6.02071 5.59033 6.01101C5.79884 6.0013 6.00708 6.03522 6.20173 6.11059C6.39639 6.18597 6.57316 6.30114 6.72076 6.44875L9.31482 9.09812C9.56465 9.34737 9.71774 9.67731 9.74676 10.029C9.77579 10.3807 9.67885 10.7313 9.47326 11.0181C9.31753 11.239 9.20026 11.4847 9.12638 11.7447C9.10292 11.8214 9.05547 11.8886 8.99101 11.9363C8.92656 11.9841 8.84848 12.0099 8.76826 12.01L2.69326 12.01C2.64032 12.0101 2.58797 11.999 2.53964 11.9774C2.49131 11.9558 2.4481 11.9242 2.41285 11.8847C2.37761 11.8452 2.35112 11.7987 2.33514 11.7482C2.31916 11.6977 2.31405 11.6445 2.32014 11.5919ZM12.8801 3.01562C12.6729 2.99755 12.4643 3.02277 12.2674 3.08966C12.0704 3.15655 11.8896 3.26366 11.7363 3.40419C11.583 3.54472 11.4605 3.71559 11.3768 3.90596C11.2931 4.09632 11.2498 4.30202 11.2498 4.50999V8.32281C11.2472 8.6766 11.3709 9.01972 11.5986 9.29053C11.8262 9.56135 12.143 9.74209 12.492 9.80031C13.1491 9.90872 13.7515 10.2327 14.2042 10.7212C14.6569 11.2098 14.9341 11.835 14.9922 12.4985C15.0504 13.162 14.886 13.8259 14.5252 14.3857C14.1643 14.9455 13.6275 15.3693 12.9992 15.5903C12.9261 15.6172 12.863 15.6658 12.8184 15.7297C12.7738 15.7936 12.7498 15.8696 12.7498 15.9475L12.7498 22.0628C12.7495 22.1159 12.7604 22.1685 12.7819 22.217C12.8034 22.2656 12.8349 22.309 12.8744 22.3445C12.914 22.3799 12.9606 22.4066 13.0112 22.4227C13.0618 22.4388 13.1152 22.4439 13.1679 22.4378C15.5078 22.1489 17.6646 21.0247 19.2415 19.272C20.8183 17.5193 21.7091 15.256 21.7498 12.8987C21.8201 7.80906 17.9239 3.4675 12.8801 3.01562ZM10.992 15.5875C10.5728 15.438 10.1921 15.197 9.8775 14.8821C9.56293 14.5672 9.32237 14.1863 9.17326 13.7669C9.14769 13.6925 9.09972 13.6279 9.03592 13.5819C8.97213 13.5359 8.89565 13.5108 8.81701 13.51L2.69232 13.51C2.63932 13.5097 2.58684 13.5206 2.53836 13.542C2.48988 13.5634 2.44649 13.5949 2.41105 13.6343C2.37562 13.6737 2.34894 13.7202 2.33278 13.7707C2.31663 13.8212 2.31136 13.8745 2.31732 13.9272C2.57993 16.0941 3.56141 18.1105 5.10489 19.654C6.64837 21.1975 8.66474 22.179 10.8317 22.4416C10.8844 22.4475 10.9377 22.4423 10.9882 22.4261C11.0387 22.4099 11.0852 22.3833 11.1246 22.3478C11.164 22.3124 11.1955 22.269 11.2169 22.2205C11.2383 22.172 11.2492 22.1196 11.2489 22.0666L11.2489 15.9475C11.249 15.8682 11.2243 15.7908 11.1783 15.7262C11.1322 15.6617 11.0671 15.6132 10.992 15.5875Z" fill="#B3B3B3"/>
</svg>
