<svg width="16" height="17" viewBox="0 0 16 17" fill="none" xmlns="http://www.w3.org/2000/svg">
<path d="M14.3539 14.1462L11.2245 11.0175C12.1315 9.92856 12.5838 8.53186 12.4873 7.11795C12.3908 5.70404 11.7528 4.38177 10.7062 3.42622C9.65963 2.47067 8.28492 1.9554 6.86808 1.9876C5.45125 2.0198 4.10137 2.59699 3.09926 3.5991C2.09714 4.60122 1.51995 5.9511 1.48775 7.36793C1.45555 8.78477 1.97082 10.1595 2.92637 11.2061C3.88193 12.2527 5.20419 12.8906 6.6181 12.9871C8.03201 13.0837 9.42871 12.6314 10.5176 11.7244L13.6464 14.8537C13.6928 14.9002 13.748 14.937 13.8087 14.9622C13.8694 14.9873 13.9344 15.0003 14.0001 15.0003C14.0658 15.0003 14.1309 14.9873 14.1916 14.9622C14.2523 14.937 14.3074 14.9002 14.3539 14.8537C14.4003 14.8073 14.4372 14.7521 14.4623 14.6914C14.4875 14.6307 14.5004 14.5657 14.5004 14.5C14.5004 14.4343 14.4875 14.3692 14.4623 14.3085C14.4372 14.2478 14.4003 14.1927 14.3539 14.1462ZM2.50014 7.49999C2.50014 6.60997 2.76406 5.73994 3.25853 4.99992C3.753 4.2599 4.4558 3.68313 5.27807 3.34253C6.10033 3.00194 7.00513 2.91282 7.87805 3.08646C8.75096 3.26009 9.55279 3.68867 10.1821 4.31801C10.8115 4.94735 11.24 5.74917 11.4137 6.62208C11.5873 7.495 11.4982 8.3998 11.1576 9.22207C10.817 10.0443 10.2402 10.7471 9.50021 11.2416C8.76019 11.7361 7.89016 12 7.00014 12C5.80707 11.9987 4.66325 11.5241 3.81962 10.6805C2.976 9.83688 2.50147 8.69306 2.50014 7.49999Z" fill="#201F24"/>
</svg>
